<svg xmlns="http://www.w3.org/2000/svg"  viewBox="0 0 48 48" width="48px" height="48px"><path fill="#373837" d="M10.19,43.993c5,0,3.146,0.164,7.645,0.16c3.752-0.004,5.49-0.348,8.18-0.195	c2.228,0.127,3.598,0.077,5.83,0.123c3.752,0.078,9.32,1.059,11.482-1.738c1.367-1.768,1.236-4.792,1.344-6.964	c0.108-2.172-0.378-5.738-0.222-7.907c0.439-6.082-0.475-6.14-0.246-11.774c0.083-2.056,0.275-8.6-1.013-10.205	c-1.24-1.545-3.227-2.06-6.598-2.017c-4.447,0.057-7.87,0.134-12.317,0.111c-1.699-0.009-3.553-0.098-5.253-0.106	c-1.371-0.007-4.528,0.257-5.899,0.279c-1.275,0.02-6.118,0.435-7.447,1.95c-2.814,3.208-2.143,10.432-2.16,10.968	c-0.161,5.172,0.35,12.527,0.338,15.177c-0.016,3.513-0.001,5.052,0.335,7.138C4.674,41.996,6.281,44.186,10.19,43.993"/><path fill="#ed488b" d="M31.205,26.563c-0.074,2.492-0.084,5.07-0.762,7.47s-2.123,4.703-4.357,5.812	c-1.789,0.888-3.945,1.23-5.931,1.022c-1.586-0.166-2.821-0.598-4.224-1.358c-0.905-0.49-1.938-1.225-2.414-1.81	c-0.981-1.207-1.93-3.053-2.225-4.073c-0.49-1.697-0.446-4.156-0.113-5.28c0.223-0.755,0.528-2.15,1.509-3.62	c0.598-0.896,2.269-2.406,3.243-2.866c2.135-1.009,3.463-0.999,5.821-1.13c0.138,1.751,0.113,3.795-0.132,5.534	c-1.376-0.217-2.732-0.246-3.628,0.736c-0.736,0.806-1.344,1.666-1.579,2.732c-0.359,1.624-0.073,3.356,1.225,4.396	c0.383,0.307,0.849,0.498,1.325,0.618c2.538,0.639,5.434-0.969,6.234-3.461c0.28-0.873,0.325-1.802,0.368-2.718	c0.309-6.639,0.738-13.873,0.247-19.681c1.166-0.193,1.954-0.128,3.63-0.144c0.153-0.002,2.497-0.11,2.608-0.005	c0.125,0.118,0.151,0.921,0.201,1.257c0.54,3.602,1.985,5.877,5.558,6.581c0.262,0.052,0.679-0.037,0.824,0.187	c0.086,0.132,0.064,0.651,0.075,0.808c0.116,1.59,0.076,2.701,0.03,4.294c-1.336,0.327-3.105-0.018-4.346-0.612	c-1.241-0.594-1.995-1.141-3.069-2.001c0.09,2.407-0.064,5.191-0.12,7.312"/><path fill="#16b7b8" d="M14.951,26.814c-0.359,0.63-0.645,1.099-0.65,2.756c-0.001,0.477,0.246,1.454,0.427,1.895	c0.461,1.125,1.258,1.472,2.376,1.949c1.053,0.449,2.252,0.418,3.337,0.053c1.164-0.391,2.117-1.322,2.668-2.419	c0.363-0.723,0.435-1.554,0.486-2.362c0.127-1.984,0.175-3.972,0.222-5.96c0.029-1.201,0.058-2.401,0.086-3.602	c0.095-3.962-0.541-8.018-0.446-11.981c1.664-0.161,4.297-0.794,5.969-0.759c0.062,1.456-0.01,3.074,0.354,4.202	c0.199,0.617,0.724,1.512,1.186,1.966c1.851,1.822,3.473,2.234,5.437,2.371c-0.026,1.959-0.072,3.241-0.099,5.2	c-2.346,0.301-4.805-0.431-6.605-1.965c-0.352,3.85,0.411,10.04-1.199,15.163c-0.266,0.848-1.319,2.45-1.896,3.126	c-0.422,0.495-0.948,0.889-1.469,1.278c-0.791,0.592-1.598,1.192-2.526,1.53c-1.085,0.395-2.267,0.433-3.421,0.413	c-2.353-0.041-4.526-0.73-4.833-0.89c-1.835-0.953-2.913-1.533-4.048-3.261c-0.331-0.504-0.585-1.055-0.802-1.618	c-0.853-2.215-1.129-4.678-0.594-6.99c0.534-2.312,1.733-4.57,3.725-5.86c1.111-0.719,1.919-1.384,3.168-1.82	c1.331-0.464,3.18-1.253,4.584-1.123c-0.316,1.958-0.344,4.591-0.415,6.573c-0.968,0.01-1.952,0.022-2.874,0.314	c-0.922,0.293-1.501,0.857-2.14,1.816"/><path fill="#d6e5e5" d="M32.828,13.976c-0.609-0.34-1.221-0.792-1.86-1.422c-0.462-0.455-0.987-1.35-1.186-1.967	c-0.203-0.63-0.34-1.207-0.433-1.846c-1.608,0.013-2.393-0.045-3.536,0.144c0.49,5.808,0.062,13.042-0.248,19.681	c-0.043,0.916-0.088,1.845-0.368,2.718c-0.8,2.492-3.695,4.1-6.234,3.461c-0.476-0.12-0.942-0.311-1.325-0.618	c-0.256-0.205-0.454-0.467-0.624-0.752c-1.069-0.457-1.837-0.816-2.285-1.91c-0.181-0.442-0.429-1.418-0.427-1.895	c0.005-1.657,0.291-2.127,0.65-2.756l0.007-0.001c0.639-0.959,1.218-1.523,2.14-1.816c0.922-0.293,1.907-0.305,2.874-0.314	c0.046-1.292,0.15-2.581,0.301-3.864c-1.488,0.119-2.874,0.347-4.343,1.041c-0.974,0.46-2.646,1.97-3.243,2.866	c-0.981,1.471-1.285,2.866-1.509,3.62c-0.332,1.124-0.377,3.583,0.113,5.28c0.295,1.02,1.245,2.866,2.225,4.073	c0.346,0.426,0.988,0.93,1.66,1.362c0.904,0.257,2.415,0.582,4.011,0.61c1.155,0.02,2.336-0.019,3.421-0.413	c0.929-0.338,1.735-0.938,2.527-1.53c0.521-0.39,1.046-0.784,1.469-1.278c0.577-0.676,1.629-2.278,1.896-3.126	C30.111,28.2,29.348,22.01,29.7,18.16c1.8,1.534,4.259,2.266,6.605,1.965c0.02-1.505,0.052-2.612,0.078-3.932	C34.974,15.719,33.755,14.98,32.828,13.976z"/><path fill="#010101" d="M19.64,40.175c-0.154,0-0.308-0.001-0.46-0.004c-2.47-0.043-4.706-0.765-5.054-0.945	c-1.813-0.942-3.01-1.564-4.236-3.431c-0.316-0.48-0.586-1.025-0.851-1.713c-0.926-2.405-1.145-4.991-0.615-7.282	c0.646-2.793,2.09-5.09,3.963-6.302l0.149-0.097c1.046-0.678,2.034-1.317,3.283-1.753l0.303-0.106	c1.313-0.462,2.947-1.037,4.356-0.908c0.138,0.013,0.264,0.082,0.349,0.191s0.121,0.25,0.099,0.387	c-0.288,1.783-0.372,4.146-0.438,6.043L20.472,24.7c-0.009,0.268-0.227,0.479-0.495,0.482c-0.919,0.009-1.871,0.019-2.728,0.291	c-0.738,0.234-1.246,0.673-1.875,1.616c-0.008,0.012-0.016,0.023-0.025,0.034c-0.317,0.556-0.544,0.978-0.549,2.448	c-0.001,0.384,0.219,1.286,0.39,1.704c0.37,0.903,0.946,1.182,2.109,1.678c0.88,0.375,1.939,0.39,2.982,0.04	c0.986-0.331,1.854-1.122,2.38-2.17c0.313-0.623,0.382-1.352,0.434-2.17c0.127-1.985,0.175-3.996,0.221-5.939l0.086-3.602	c0.047-1.956-0.105-3.966-0.253-5.909c-0.149-1.968-0.304-4.003-0.256-6.009c0.006-0.253,0.2-0.462,0.452-0.486l1.105-0.112	c1.597-0.165,3.587-0.373,4.952-0.345c0.264,0.006,0.478,0.215,0.489,0.479l0.028,0.808c0.034,1.099,0.062,2.047,0.336,2.896	c0.182,0.562,0.677,1.387,1.061,1.764c1.712,1.686,3.174,2.093,5.121,2.229c0.265,0.019,0.469,0.24,0.465,0.506	c-0.013,0.981-0.031,1.793-0.05,2.604c-0.018,0.81-0.036,1.618-0.049,2.597c-0.003,0.249-0.189,0.458-0.437,0.489	c-2.163,0.277-4.428-0.281-6.232-1.503c-0.048,1.008-0.047,2.146-0.046,3.334c0.003,3.496,0.007,7.459-1.113,11.021	c-0.294,0.934-1.376,2.578-1.992,3.3c-0.462,0.541-1.015,0.955-1.55,1.354c-0.811,0.606-1.649,1.233-2.655,1.6	C21.763,40.098,20.682,40.175,19.64,40.175z M19.856,18.62c-1.089,0.052-2.355,0.497-3.402,0.865l-0.306,0.106	c-1.136,0.396-2.032,0.977-3.068,1.649l-0.15,0.097c-1.657,1.072-2.944,3.145-3.532,5.687c-0.485,2.099-0.282,4.478,0.574,6.698	c0.238,0.62,0.478,1.104,0.753,1.523c1.082,1.648,2.128,2.191,3.86,3.092c0.258,0.132,2.365,0.794,4.611,0.833	c1.085,0.022,2.227-0.014,3.242-0.383c0.867-0.315,1.645-0.897,2.398-1.461c0.491-0.367,0.998-0.746,1.388-1.203	c0.542-0.635,1.559-2.188,1.798-2.951c1.073-3.413,1.07-7.295,1.067-10.719c-0.001-1.588-0.002-3.087,0.112-4.34	c0.017-0.186,0.136-0.347,0.31-0.417c0.172-0.072,0.371-0.038,0.513,0.082c1.58,1.348,3.721,2.038,5.787,1.894	c0.013-0.788,0.028-1.474,0.043-2.158c0.015-0.678,0.03-1.354,0.042-2.13c-1.911-0.188-3.502-0.724-5.281-2.475	c-0.502-0.494-1.078-1.446-1.311-2.17c-0.318-0.982-0.35-2.046-0.384-3.172l-0.011-0.317c-1.275,0.02-2.965,0.195-4.354,0.341	l-0.668,0.067c-0.017,1.817,0.124,3.672,0.26,5.47c0.149,1.968,0.304,4.002,0.256,6.008l-0.086,3.602	c-0.047,1.954-0.095,3.975-0.223,5.98c-0.057,0.895-0.142,1.764-0.539,2.555c-0.645,1.281-1.722,2.254-2.956,2.668	c-1.275,0.429-2.585,0.405-3.692-0.067c-1.127-0.48-2.1-0.896-2.643-2.219c-0.19-0.466-0.466-1.51-0.464-2.087	c0.006-1.757,0.325-2.317,0.696-2.967c0.015-0.026,0.031-0.05,0.05-0.072c0.633-0.949,1.284-1.654,2.4-2.009	c0.84-0.267,1.7-0.316,2.542-0.332C19.551,22.461,19.625,20.361,19.856,18.62z"/><path fill="#010101" d="M21.287,41.425c-0.397,0-0.792-0.021-1.184-0.062c-1.583-0.165-2.86-0.575-4.41-1.415	c-0.881-0.477-2.016-1.261-2.564-1.935c-1.044-1.286-2.016-3.207-2.317-4.25c-0.511-1.771-0.469-4.351-0.112-5.56l0.089-0.315	c0.233-0.834,0.584-2.093,1.482-3.44c0.619-0.929,2.331-2.515,3.446-3.041c2.051-0.97,3.405-1.041,5.456-1.147l0.551-0.029	c0.262-0.029,0.504,0.189,0.526,0.46c0.15,1.907,0.101,3.964-0.135,5.643c-0.019,0.133-0.09,0.253-0.198,0.333	c-0.107,0.079-0.243,0.112-0.375,0.092c-1.205-0.19-2.422-0.253-3.181,0.578c-0.828,0.908-1.278,1.68-1.46,2.503	c-0.36,1.626,0.032,3.083,1.049,3.898c0.288,0.23,0.669,0.406,1.134,0.522c2.286,0.574,4.917-0.888,5.636-3.128	c0.262-0.815,0.304-1.717,0.345-2.589l0.092-1.941c0.293-6.126,0.597-12.461,0.156-17.674c-0.022-0.26,0.159-0.492,0.417-0.535	c0.922-0.153,1.636-0.154,2.624-0.148c0.321,0.001,0.675,0,1.083-0.003l0.202-0.007c2.509-0.095,2.57-0.036,2.754,0.139	c0.216,0.201,0.256,0.545,0.314,1.187c0.013,0.139,0.024,0.268,0.038,0.358c0.565,3.768,2.06,5.554,5.16,6.165	c0.057,0.011,0.125,0.01,0.193,0.012c0.266,0.007,0.71,0.02,0.953,0.394c0.134,0.206,0.147,0.491,0.152,0.901l0.003,0.145	c0.113,1.542,0.082,2.627,0.038,4.129l-0.006,0.215c-0.007,0.225-0.163,0.418-0.381,0.471c-1.52,0.375-3.446-0.056-4.681-0.646	c-0.924-0.442-1.583-0.854-2.329-1.41c0.017,1.542-0.04,3.167-0.091,4.633c-0.02,0.565-0.039,1.107-0.052,1.612	c0,0.014,0,0.026,0,0.04l-0.019,0.667c-0.062,2.3-0.127,4.679-0.762,6.924c-0.801,2.835-2.484,5.066-4.616,6.125	C24.823,41.029,23.043,41.425,21.287,41.425z M21.288,21.255l-0.062,0.003c-2,0.104-3.208,0.168-5.081,1.054	c-0.851,0.401-2.471,1.835-3.042,2.691c-0.81,1.215-1.135,2.382-1.351,3.154l-0.094,0.33c-0.318,1.074-0.337,3.44,0.114,4.999	c0.275,0.953,1.198,2.746,2.133,3.896c0.394,0.484,1.324,1.178,2.264,1.687c1.425,0.772,2.595,1.148,4.038,1.3	c1.938,0.201,4-0.151,5.656-0.973c1.879-0.933,3.373-2.938,4.098-5.5c0.601-2.126,0.664-4.441,0.725-6.68l0.018-0.63	c0-0.013,0-0.025,0-0.038c0.014-0.519,0.034-1.076,0.054-1.659c0.063-1.79,0.134-3.818,0.067-5.62	c-0.007-0.195,0.1-0.377,0.274-0.465c0.175-0.089,0.385-0.066,0.538,0.056c1.088,0.871,1.811,1.384,2.973,1.939	c0.973,0.466,2.429,0.821,3.642,0.648c0.04-1.378,0.064-2.414-0.041-3.843c-0.003-0.047-0.005-0.119-0.006-0.204	c-0.001-0.069-0.002-0.198-0.009-0.303c-0.042-0.002-0.087-0.003-0.123-0.004c-0.128-0.004-0.254-0.01-0.36-0.031	c-3.496-0.688-5.333-2.847-5.956-6.997c-0.016-0.105-0.03-0.256-0.044-0.417c-0.011-0.122-0.028-0.309-0.048-0.457	c-0.277-0.004-0.843-0.002-1.987,0.041l-0.229,0.008c-0.414,0.004-0.773,0.003-1.097,0.003c-0.791-0.007-1.366-0.004-2.004,0.07	c0.391,5.185,0.095,11.358-0.191,17.335l-0.092,1.94c-0.044,0.938-0.089,1.906-0.392,2.847c-0.888,2.764-4.018,4.494-6.832,3.794	c-0.604-0.151-1.115-0.392-1.516-0.714c-1.32-1.059-1.844-2.888-1.4-4.894c0.284-1.286,1.057-2.258,1.698-2.961	c0.953-1.042,2.299-1.112,3.565-0.964C21.343,24.336,21.378,22.764,21.288,21.255z"/><path fill="#010101" d="M37.241,44.813c-1.074,0-2.173-0.065-3.231-0.128c-0.764-0.046-1.5-0.09-2.176-0.104	c-0.775-0.017-1.445-0.021-2.084-0.025c-1.183-0.008-2.299-0.015-3.764-0.099c-1.45-0.082-2.635-0.017-4.008,0.059	c-1.143,0.063-2.439,0.135-4.143,0.137c-2.225-0.017-2.894-0.037-3.615-0.077c-0.731-0.04-1.486-0.083-4.019-0.083	c-3.709,0.182-5.897-1.645-6.506-5.421c-0.349-2.169-0.357-3.78-0.341-7.22c0.004-0.95-0.061-2.543-0.136-4.388	c-0.136-3.336-0.305-7.488-0.203-10.802c0.002-0.051-0.004-0.168-0.012-0.34C2.768,11.067,3.541,7.386,5.3,5.38	c1.702-1.939,7.755-2.118,7.815-2.119c0.612-0.01,1.584-0.068,2.592-0.13c1.252-0.076,2.552-0.145,3.317-0.149	c0.854,0.005,1.745,0.029,2.637,0.054c0.885,0.024,1.77,0.049,2.616,0.053c3.388,0.018,6.128-0.022,9.299-0.069l3.01-0.042	c3.684-0.061,5.701,0.593,6.994,2.204c1.22,1.52,1.284,6.569,1.123,10.538c-0.105,2.585,0.035,3.984,0.169,5.339	c0.162,1.622,0.314,3.154,0.076,6.451c-0.08,1.101,0.015,2.617,0.105,4.084c0.083,1.352,0.17,2.748,0.118,3.812	c-0.016,0.317-0.026,0.653-0.038,1c-0.065,2.054-0.146,4.609-1.41,6.245C42.352,44.423,39.871,44.813,37.241,44.813z M24.618,43.419	c0.455,0,0.924,0.012,1.426,0.041c1.439,0.082,2.494,0.089,3.714,0.097c0.643,0.005,1.318,0.009,2.098,0.025	c0.688,0.015,1.437,0.059,2.214,0.104c3.401,0.205,7.255,0.431,8.862-1.648c1.066-1.38,1.142-3.756,1.202-5.665	c0.011-0.354,0.022-0.695,0.038-1.018c0.05-1.008-0.035-2.377-0.117-3.7c-0.093-1.5-0.188-3.051-0.104-4.219	c0.232-3.211,0.083-4.701-0.074-6.279c-0.139-1.389-0.282-2.824-0.174-5.479c0.211-5.212-0.126-8.902-0.904-9.872	c-1.076-1.341-2.863-1.866-6.201-1.829L33.59,4.019c-3.175,0.046-5.917,0.087-9.318,0.069c-0.854-0.005-1.746-0.029-2.638-0.054	c-0.884-0.024-1.769-0.049-2.615-0.053c-0.744-0.018-2.015,0.073-3.252,0.147c-1.025,0.062-2.013,0.121-2.636,0.132	C11.637,4.283,7.186,4.748,6.052,6.04c-1.089,1.24-2.328,4.024-2.049,10.238c0.009,0.211,0.015,0.354,0.013,0.416	c-0.102,3.277,0.066,7.41,0.202,10.729c0.076,1.857,0.141,3.461,0.137,4.433c-0.017,3.613,0.006,5.057,0.329,7.058	c0.521,3.238,2.329,4.715,5.481,4.58l0.025-0.001c2.57,0,3.341,0.043,4.087,0.085c0.706,0.04,1.377,0.075,3.558,0.075	c1.676-0.002,2.958-0.072,4.088-0.135C22.858,43.467,23.708,43.419,24.618,43.419z"/></svg>