<svg id="Layer_1" data-name="Layer 1" xmlns="http://www.w3.org/2000/svg" viewBox="0 0 400 300" width="406" height="306" class="illustration styles_illustrationTablet__1DWOa"><title>_</title><path d="M291,71.18c30.26,9.78,53.73,37.28,59.82,71.68,5.14,29-3.38,64.62-53.1,81.16-50.75,16.89-192.66,25-219-22S57.85,94.75,112,73.37C149.89,58.39,231.9,52.07,291,71.18Z" fill="#e6e6e6" opacity="0.3"></path><path d="M269.07,212.25l11.17-51.14a2.28,2.28,0,0,1,4.45,0l12.13,52Z" fill="#68e1fd"></path><rect x="265.35" y="207.31" width="34.88" height="8.57" rx="3.38" fill="#68e1fd"></rect><rect x="265.35" y="207.31" width="34.88" height="8.57" rx="3.38" fill="#fff" opacity="0.46"></rect><polygon points="276.1 180.07 288 175.3 291.48 190.19 272.75 195.37 276.1 180.07" opacity="0.08"></polygon><rect x="256.7" y="230.73" width="57.65" height="15.18" fill="#e6e6e6"></rect><rect x="244.1" y="215.88" width="66.97" height="15.18" fill="#e6e6e6" opacity="0.43"></rect><rect x="144.33" y="41.21" width="114.13" height="204.69" fill="#c9c9c9"></rect><rect x="153.77" y="64.55" width="94.47" height="144.05" fill="#fff"></rect><circle cx="201.74" cy="227.05" r="11.17" fill="#fff" opacity="0.56"></circle><rect x="191.74" y="49.21" width="32" height="4.67" opacity="0.12"></rect><circle cx="180.15" cy="52.06" r="5.21" fill="#fff"></circle><path d="M189.8,64.55,180.15,90l11.59,3.32-8.84,50.2L203.07,90l-11.33-3.57s9.49-21.92,9.26-21.92Z" opacity="0.12"></path><path d="M206.2,111.82s26.59,15,10.53,44.94c-4.85,9-19,9.29-28.46,16.26-7.39,5.43,7.14,20.2-5.25,35.58-3.91,4.86-17.73,4.31-22.07,8.59-8.35,8.2-10.3,13.23-16.62,21.13l-.17-31.25,29.05-48.79L186,159.5l14.11-5,8-12.69V125Z" opacity="0.06"></path><polygon points="90.12 231.3 137.44 193.22 155.57 207.66 124.79 254.75 90.12 231.3" fill="#f4a28c"></polygon><polygon points="85.65 228.24 126.84 256.48 153.8 217.05 125.29 196.91 85.65 228.24" fill="#68e1fd"></polygon><polygon points="143.89 210.05 109.67 244.87 126.84 256.48 153.8 217.05 143.89 210.05" opacity="0.06"></polygon><rect x="164.07" y="153.88" width="8.68" height="30.4" transform="translate(67.79 -47.31) rotate(19.95)" fill="#24285b"></rect><rect x="164.07" y="153.88" width="8.68" height="30.4" transform="translate(67.79 -47.31) rotate(19.95)" fill="#fff" opacity="0.18"></rect><rect x="155.67" y="168.07" width="14.28" height="34.03" rx="4.65" transform="translate(72.91 -44.44) rotate(19.95)" fill="#24285b"></rect><path d="M192.76,102.31a31.12,31.12,0,1,0,18.64,39.87A31.13,31.13,0,0,0,192.76,102.31Zm-18.55,51.1A23.24,23.24,0,1,1,204,139.49,23.24,23.24,0,0,1,174.21,153.41Z" fill="#ffd200"></path><path d="M137.44,193.22s9.09-9.88,16.36-16.94,9.42,5.69,18.53,3.76,16.17,32-16.76,27.62Z" fill="#f4a28c"></path><rect x="228.58" y="95.59" width="59.74" height="46.2" fill="#e6e6e6"></rect><rect x="228.58" y="86.64" width="59.74" height="8.95" fill="#24285b"></rect><g opacity="0.12"><path d="M256.15,131.63a13.81,13.81,0,0,1-5.36-2.22c-.52.54-1,1.08-1.56,1.64-.26.29-.44.26-.7,0-.85-.87-1.72-1.73-2.6-2.58-.26-.24-.22-.4,0-.63.55-.53,1.07-1.08,1.57-1.6-.45-.87-.95-1.73-1.33-2.63a16.14,16.14,0,0,1-.71-2.3c-.07-.29-.18-.36-.46-.35-.66,0-1.32,0-2,0-.32,0-.43-.12-.42-.44,0-1.23,0-2.47,0-3.7,0-.32.12-.43.43-.42.68,0,1.35,0,2,0a.48.48,0,0,0,.36-.23,13.62,13.62,0,0,1,2.17-5c-.55-.54-1.09-1.1-1.66-1.62-.25-.23-.25-.39,0-.62.88-.86,1.76-1.73,2.63-2.61.24-.24.41-.24.63,0,.52.56,1.05,1.1,1.58,1.65l1.09-.66a12.66,12.66,0,0,1,3.9-1.45c.29-.06.4-.16.39-.48,0-.64,0-1.29,0-1.93,0-.32.1-.43.42-.43q1.88,0,3.75,0c.35,0,.45.13.45.46,0,.74,0,1.49,0,2.29a13.49,13.49,0,0,1,5.35,2.22c.54-.56,1.07-1.1,1.58-1.66.25-.27.43-.25.67,0,.86.87,1.72,1.73,2.61,2.58.26.25.24.41,0,.66-.54.51-1.05,1-1.61,1.62l.44.69a12.35,12.35,0,0,1,1.65,4.14c.07.36.22.43.54.42.62,0,1.24,0,1.85,0,.35,0,.49.1.49.47,0,1.21,0,2.41,0,3.62,0,.35-.11.49-.47.48-.68,0-1.35,0-2,0a.45.45,0,0,0-.33.25,13.43,13.43,0,0,1-2.15,5c.54.55,1.06,1.1,1.61,1.61.27.26.29.43,0,.69-.88.85-1.74,1.71-2.6,2.58-.24.23-.4.26-.64,0-.51-.56-1-1.1-1.59-1.67a13.54,13.54,0,0,1-5.36,2.21c0,.78,0,1.53,0,2.27,0,.34-.09.49-.46.49-1.24,0-2.47,0-3.71,0-.38,0-.46-.15-.45-.49C256.16,133.15,256.15,132.4,256.15,131.63ZM258.49,111a7.7,7.7,0,1,0,7.74,7.71A7.73,7.73,0,0,0,258.49,111Z"></path></g><path d="M250.27,257.72s5.56-8-2.73-10.19,2-13-5.72-14.39-6.43,10-6.43,10-5.33-4.59-9-.74,1.47,8.09,1.47,8.09-7.43,2.57-2.8,7.25Z" fill="#e6e6e6"></path><path d="M239.12,258.79s3.53-6,8.74-5.3,4.64,5.3,4.64,5.3Z" fill="#c9c9c9"></path></svg>