<svg id="Layer_2" data-name="Layer 2" xmlns="http://www.w3.org/2000/svg" xmlns:xlink="http://www.w3.org/1999/xlink" viewBox="0 0 400 300" width="406" height="306" class="illustration styles_illustrationTablet__1DWOa"><defs><linearGradient id="linear-gradient" x1="54.12" y1="189.75" x2="91.02" y2="162.94" gradientUnits="userSpaceOnUse"><stop offset="0" stop-color="#cca8ff"></stop><stop offset="1" stop-color="#2e3192"></stop></linearGradient><linearGradient id="linear-gradient-2" x1="329.19" y1="194.58" x2="352.44" y2="177.69" xlink:href="#linear-gradient"></linearGradient><linearGradient id="linear-gradient-3" x1="217.95" y1="194.71" x2="241.45" y2="162.9" xlink:href="#linear-gradient"></linearGradient><linearGradient id="linear-gradient-4" x1="183.58" y1="238.55" x2="204.38" y2="213.1" xlink:href="#linear-gradient"></linearGradient></defs><title>PP</title><path d="M195.71,289.5,16,183.29c-5.72-3.21-10.63-8.49-5.05-11.94l180.37-104c2.71-1.68,6.82-2.78,9.57-1.18L389.53,175.7c5.72,3.32,6.75,12.6,1,15.93L219.4,289.34A23.9,23.9,0,0,1,195.71,289.5Z" fill="#cca8ff"></path><polygon points="97.41 172.5 55.22 196.85 38.57 186.84 68.15 168.47 97.41 172.5" fill="url(#linear-gradient)"></polygon><path d="M168.12,133.35l-11.71,6.13-9.9-6.69,11-6.13s-11.15-3.07-19.52,2.09-5.72,8.64-7.95,11.15-62.74,33.32-62.74,33.32a12,12,0,0,0-1.9,1.81l-1.71-1.81v5.16a4.34,4.34,0,0,0,0,1.44v.09h0a5.2,5.2,0,0,0,1.57,2.73c4.92,4.86,11.51,1.46,20-3.15s48.24-26.77,48.24-26.77,6.55-4.46,10.6-4.32c3.34.12,21.17,1,24.25-8V134.3C168.31,134,168.23,133.67,168.12,133.35Z" fill="#68e1fd"></path><path d="M168.12,133.35l-11.71,6.13-9.9-6.69,11-6.13s-11.15-3.07-19.52,2.09-5.72,8.64-7.95,11.15-62.74,33.32-62.74,33.32a12,12,0,0,0-1.9,1.81l-1.71-1.81v5.16a4.34,4.34,0,0,0,0,1.44v.09h0a5.2,5.2,0,0,0,1.57,2.73c4.92,4.86,11.51,1.46,20-3.15s48.24-26.77,48.24-26.77,6.55-4.46,10.6-4.32c3.34.12,21.17,1,24.25-8V134.3C168.31,134,168.23,133.67,168.12,133.35Z" fill="#3f3d56" opacity="0.33"></path><polygon points="157.05 122.58 157.05 128.57 147.57 133.73 142.13 128.15 157.05 122.58" fill="#68e1fd"></polygon><polygon points="157.05 122.58 157.05 128.57 147.57 133.73 142.13 128.15 157.05 122.58" fill="#3f3d56" opacity="0.33"></polygon><path d="M146,128.71l11-6.13s-11.15-3.07-19.52,2.09-5.72,8.64-7.95,11.15-62.74,33.32-62.74,33.32-5.58,2.79-2,8.23,11.43,2.65,19.94-2,48.24-26.77,48.24-26.77,6.55-4.46,10.6-4.32,29.28,1.39,24-15.06l-11.71,6.13Z" fill="#68e1fd"></path><ellipse cx="71.89" cy="173.22" rx="3.9" ry="2.78" fill="#3f3d56" opacity="0.77"></ellipse><polygon points="358.33 186.27 334.19 200.2 317.54 190.19 341.25 175.47 358.33 186.27" fill="url(#linear-gradient-2)"></polygon><path d="M329,120.83a11,11,0,0,1,5.37,1,8.74,8.74,0,0,1,3.79,4.32c.82,1.74,1.19,4.22,2.91,5.34a5.05,5.05,0,0,1,1.7,1.48,4.43,4.43,0,0,1,.53,4.12c-.76,1.52-3.94,2.46-5.4,2.18" fill="#8fdb5e"></path><path d="M327.56,121a10.38,10.38,0,0,0-9.16,7.86,13.7,13.7,0,0,0-.07,6.47c.41,1.72,1.43,4.69,3.53,4.82,2.83.18,3.75-2.48,4.65-4.65s1.83-4.57,4.1-5.43a6.1,6.1,0,0,1,6.54,1.48Z" fill="#1e8c0e"></path><path d="M340.51,132.52c-1.71-2.21-3.13-4.63-4.78-6.89a20.49,20.49,0,0,0-3.32-4c-3.94-1.91-8.89-.16-11.8,3.19.4.12,1,.15,1.26.26a11.21,11.21,0,0,1,4.51,3.19c1.74,1.93,3.1,4.29,4.64,6.34,2.5,3.33,5.82,6.06,10.12,4.07C343.87,137.4,341.72,134.09,340.51,132.52Z" fill="#8fdb5e"></path><path d="M354.41,104s8.87-.7,8.7,13.33-13.42,4.8-10.51-3.65" fill="#1e8c0e"></path><path d="M353.13,117.85c-.1-4.27,4.7-7.39,8.75-7.94-.64-2.45-3.13-6.39-8-6.27-6.07.16-10.63,6.33-11.65,13.6s4.47,11.88,4.47,11.88l2.93,2.5C355,129.51,353,121.74,353.13,117.85Z" fill="#8fdb5e"></path><path d="M377.29,127.89a18.53,18.53,0,0,0-2.05-7.62,8.39,8.39,0,0,0-5.77-4.47l-5,9.62s7.44-13,4.41-3,7,21.27,8.35,6.32C377.26,128.45,377.27,128.17,377.29,127.89Z" fill="#1e8c0e"></path><path d="M342,152.93s-6.68,4.34-4.82,14.51a55.78,55.78,0,0,0,3,10.3c1.29,3.3,2.24,7.57,5.58,9.44,3.1,1.74,7.91,2.05,11,.14,2.86-1.75,3.88-5.72,4.94-8.67a53.85,53.85,0,0,0,2.56-11.21C367.39,142.88,342,152.93,342,152.93Z" fill="#68e1fd"></path><ellipse cx="350.98" cy="154.42" rx="9.74" ry="3.52" fill="#34323d"></ellipse><path d="M351.77,135.66c-1.36-3.28-3.9-6-4.7-9.56a12.51,12.51,0,0,1,5-12.77c.74-.54,0-1.79-.73-1.24-6.23,4.52-7.43,12.24-3.8,18.82,1.12,2,2.6,4,3.28,6.24.9,2.93-.1,5-1.48,7.24a8.34,8.34,0,0,0-2.16-5.9c-1.62-1.5-4-1.75-6-2.43-3.88-1.31-7.29-3.53-7.95-7.85-.14-.91-1.53-.53-1.39.38.54,3.54,2.86,6.06,6,7.67a41.7,41.7,0,0,0,5.78,2,6.73,6.73,0,0,1,3.81,3.72c.92,2.12.3,3.57-.22,5.63-.67,2.67-1.73,5,.1,7.48.54.74,1.79,0,1.24-.73-2.92-4,1.74-7.85,3.32-11.31A8.9,8.9,0,0,0,351.77,135.66Z" fill="#1e8c0e"></path><path d="M369.73,126.83c-6.15-1.08-10.34,3.68-10,9.64a22.6,22.6,0,0,0,.83,4.41c.28,1,1,2.8.81,3.83a5.81,5.81,0,0,1-3.52,4.11c-2.67,1.26-4.39,2.78-5.19,5.7a.72.72,0,0,0,1.39.38c1.42-5.21,8.71-4.46,8.76-10.2,0-2.8-1.46-5.44-1.64-8.24-.3-4.91,2.9-9.18,8.16-8.25C370.26,128.38,370.65,127,369.73,126.83Z" fill="#1e8c0e"></path><path d="M375.24,120.27c-2.38-4.4-6.72-5.43-11-4.12a14,14,0,0,0-1.71.83c-10.69,7.92-3.1,25.79-1.45,25.66,5.45-.45,4.88-3.65,6.71-12.61a8.46,8.46,0,0,1,8.51-7.17A15.84,15.84,0,0,0,375.24,120.27Z" fill="#8fdb5e"></path><path d="M372.89,117.35a8.91,8.91,0,0,0-9.11,4.37c-3.91,6.54-3,14.15-2.49,21.36.07.92,1.51.93,1.44,0-.38-5.21-1.11-10.37.31-15.49.7-2.51,1.53-5.3,3.54-7.1a7.38,7.38,0,0,1,8-1.15l-.55-.74C373.67,118.19,373.28,117.77,372.89,117.35Z" fill="#1e8c0e"></path><path d="M217.66,156.28l-38,21.45s36.53,22.45,57.44,35.17l33.17-20.15" fill="url(#linear-gradient-3)"></path><path d="M230,87.58a2.68,2.68,0,0,0-1.37-1.83,1.41,1.41,0,0,0-1.88.49,1.56,1.56,0,0,0-.14,1v0a3,3,0,0,0,.81,2.76,1.39,1.39,0,0,0,1.95,0A2.81,2.81,0,0,0,230,87.58Z" fill="#5a2500"></path><path d="M272.93,42.61,220.57,11.68a6.36,6.36,0,0,0-5-.34h0l-.08,0a6.59,6.59,0,0,0-1.11.49L209.44,14l2.65,1.17h0l1.63,134a13.49,13.49,0,0,0,6.7,11.66l48.81,28.44-.76,4.58,6.62-3.5h0a4.06,4.06,0,0,0,2.11-3.58V50.08A8.67,8.67,0,0,0,272.93,42.61Z" fill="#68e1fd"></path><path d="M272.93,42.61,220.57,11.68a6.36,6.36,0,0,0-5-.34h0l-.08,0a6.59,6.59,0,0,0-1.11.49L209.44,14l2.65,1.17h0l1.63,134a13.49,13.49,0,0,0,6.7,11.66l48.81,28.44-.76,4.58,6.62-3.5h0a4.06,4.06,0,0,0,2.11-3.58V50.08A8.67,8.67,0,0,0,272.93,42.61Z" fill="#3f3d56" opacity="0.33"></path><path d="M264.68,193.66l-50.61-29.49a13.49,13.49,0,0,1-6.7-11.66V17.27a3.58,3.58,0,0,1,5.41-3.09L266.58,46a8.67,8.67,0,0,1,4.26,7.47V190.12A4.1,4.1,0,0,1,264.68,193.66Z" fill="#f4f4f4"></path><polygon points="267.63 61.69 209.98 28.63 209.98 146.93 267.63 180.26 267.63 61.69" fill="#68e1fd"></polygon><ellipse cx="233.44" cy="168.52" rx="2.66" ry="3.59" transform="translate(-32.75 58.81) rotate(-13.43)" fill="#bababc"></ellipse><path d="M231.28,34.32h0a1.29,1.29,0,0,0,.65,1.12l11.14,6.4A1.29,1.29,0,0,0,245,40.72v-.27a1.29,1.29,0,0,0-.67-1.13l-11.14-6.13A1.29,1.29,0,0,0,231.28,34.32Z" fill="#ccc"></path><ellipse cx="226.16" cy="30.91" rx="1.26" ry="1.72" transform="translate(3.33 80.41) rotate(-20.31)" fill="#ccc"></ellipse><path d="M223.76,102.31l-.43-1.52-4.83-2.63V89.93c0-.16,4.67,2.75,4.67,2.75l.22-.46a11,11,0,0,1,1.42-3.56l-3.4-6.28,4.32-3.28,3.23,6.47,0,0a7.35,7.35,0,0,1,3.56.06V79.44l6.18,3.43v6.5a27.34,27.34,0,0,1,3.3,3.8l3.73-2.38,4.21,8-3.33,2.65.28,1.34a36.7,36.7,0,0,1,1,4.33l5,2.73V118l-4.72-2.81a10.62,10.62,0,0,1-1.53,4.2l3.54,6-4.48,3.39-3.15-6.18h-3.92v6.18l-5.89-3.59v-6.07a24.36,24.36,0,0,1-3.56-4.41l-3.55,2.42L221.36,109l3.55-2.62-.35-1.23C224.25,104.18,224,103.24,223.76,102.31Z" fill="#3f3d56" opacity="0.33"></path><ellipse cx="235.11" cy="103.95" rx="4.92" ry="8.46" transform="translate(-21.73 93.19) rotate(-21.45)" fill="#68e1fd"></ellipse><path d="M162,231.74a6.77,6.77,0,0,0-.57-.42L194,209.88,219.46,229l-27.63,19.81C182.25,242.42,171.42,238.38,162,231.74Z" fill="url(#linear-gradient-4)"></path><path d="M213.15,106.26a10,10,0,0,1,.68-1.34.14.14,0,0,0,0,.07.18.18,0,0,0,.32.05l.49-.75a.87.87,0,0,0,0,.29.75.75,0,0,0,.83.59.74.74,0,0,0,.66-.93l.23-.26a.74.74,0,0,0,0,.23.65.65,0,0,0,1.08.27c.09-.07.16-.16.25-.24a.55.55,0,0,0,.44,0,16.8,16.8,0,0,0,1.88-.77A.29.29,0,0,1,220,103a18.76,18.76,0,0,1,2.28-1.58l.1,0,0-.08a2.56,2.56,0,0,0-.12-1.84,2,2,0,0,0,.41-1.7.31.31,0,0,1-.17-.07,1.39,1.39,0,0,1-.29-.34,1.94,1.94,0,0,1-.32-.59.26.26,0,0,1,.1-.29c-.3-.4-.64-.77-1-1.11a7.5,7.5,0,0,0,1-4.21.64.64,0,0,0-1.2-.31,13.59,13.59,0,0,0-.79,1.44.54.54,0,0,0-.18.2,79.58,79.58,0,0,1-4.2,7.55c-.26.41-3.45,4.81-3.09,4.91C212.55,105.15,209.94,111.18,213.15,106.26Zm1.89-1.86s0,0,0,0a.17.17,0,0,0,.26,0l0,0a.66.66,0,0,0,.55.11.42.42,0,0,1-.84-.06Z" fill="#fcbf81"></path><path d="M213.5,104.86a7,7,0,0,0,1.72-2,1.34,1.34,0,0,1,1.86-.52,7.86,7.86,0,0,0,.07-1.07c0-1.81,2.85-1.84,2.82,0a6.86,6.86,0,0,1-1.09,4,11.55,11.55,0,0,1-3.07,2.72,1.45,1.45,0,0,1-2.15-1.09l-.13-.1A1.42,1.42,0,0,1,213.5,104.86Z" fill="#fcbf81"></path><path d="M218,105.94a5.72,5.72,0,0,0,2.39-3.34.16.16,0,0,0,.23.05l1.13-.76a2.63,2.63,0,0,0,.63-.52c.41-.52,0-1.12-.16-1.66a.17.17,0,0,0-.06-.08l.16-.27a2.41,2.41,0,0,0,.42-1.4c-.08-.49-.54-.81-.76-1.23a1.09,1.09,0,0,0-.66-1.2c-.6-.27-.93.18-1.26.62q-1,1.42-2,2.91c-.12.19.19.36.31.17.34-.54.68-1.07,1-1.59a6.64,6.64,0,0,1,1.14-1.59c1.26-.73,1,1,.81,1.46-.12.26-.27.51-.42.76L220,100a.17.17,0,0,0,0,0,.16.16,0,0,0,0,.14,5,5,0,0,1-2.17,5.51C217.65,105.77,217.83,106.07,218,105.94Zm2.56-5.74a.16.16,0,0,0-.19,0l0-.12a13.4,13.4,0,0,0,1.54-2.87c.09.11.18.22.26.34a1.07,1.07,0,0,1,.07,1.18C222,99.3,221.35,100.64,220.58,100.21Zm-.11,2.14a4.93,4.93,0,0,0,0-1.81c.6.3,1.12-.1,1.49-.59a3.89,3.89,0,0,1,.25.7.73.73,0,0,1-.38.78C221.39,101.75,220.92,102,220.46,102.35Z" fill="#34323d"></path><path d="M197.87,111.63s8.23.39,10.37-1.58,5.23-8.18,5.23-8.18,5.67,3.64,6,5.74-5.93,12.24-8.68,12.92" fill="#68e1fd"></path><path d="M197.87,111.63s8.23.39,10.37-1.58,5.23-8.18,5.23-8.18,5.67,3.64,6,5.74-5.93,12.24-8.68,12.92" fill="#3f3d56" opacity="0.33"></path><path d="M185.39,213.1s7-3.09,8.63-3.22,4.47.45,2,3.52c0,0-7.32,4.79-8.28,4.94s-3.31-.58-3.37-.33-.28,2.1-.28,2.1-6.12,2.33-6.38-1.76c0-.53.88-8.13.88-8.13" fill="#34323d"></path><path d="M177.41,195.17c1.21-7.86,3.42-15.48,4.35-23.44.58-5,1-10,1.61-15s2.48-9.84,3.68-14.79a.54.54,0,0,0-.25-.61c.06-.17.11-.35.16-.52.62-.59,1.25-1.15,1.86-1.68l8.55,5.76s-.05,5.24-.32,12.82c-1,4.42-1.75,8.37-2.87,12.56a1.1,1.1,0,0,1,.26,1,355.19,355.19,0,0,0-6.07,40,1.16,1.16,0,0,1-.76,1l-.24,2.07c-7.44,2.87-9.07-2.13-9.07-2.13s-.34-4.26-.76-10.18C177.39,199.71,177.36,197.44,177.41,195.17Z" fill="#34323d"></path><path d="M240.36,115c-.44.26-.92.56-1.47.93a19.76,19.76,0,0,0,1.94-3c.55-.92-.82-1.68-1.49-1a58.06,58.06,0,0,1-6.11,5.75.93.93,0,0,0-.25.28l-1.33,0c-.4,0-.77,0-1.14,0l-.32,0a.81.81,0,0,0-.75.23,2.59,2.59,0,0,0-.5.23.84.84,0,0,0-.14.12c-.44,0-.88.08-1.31.14a1,1,0,0,0-.71,1.37l-.18-.1c-1-.61-1.77,1-.79,1.63a13.2,13.2,0,0,0,6.92,1.95.79.79,0,0,0,.78.1l.42-.15a20,20,0,0,0,6.06-1.26,5.48,5.48,0,0,1,1.62-.37h0C241.25,119.51,240.79,117.23,240.36,115Z" fill="#fcbf81"></path><path d="M200.61,224.54l4.13,1.48a2.28,2.28,0,0,0,1.67,1.52.92.92,0,0,0,.58.32,10.83,10.83,0,0,0,4.91-.8c2-.62,9.71-3.58,7.56,2-1.41,1-3,1.85-4.43,2.73-.81.49-1.63,1-2.46,1.44a4.88,4.88,0,0,1-1.44.67c-1.11.17-3.81-.67-3.88-.38s-.32,2.42-.32,2.42-7,2.68-7.34-2C199.55,233.27,200.61,224.54,200.61,224.54Z" fill="#34323d"></path><path d="M194.8,182.25c-.86-13.9-1.34-27.88-4.27-41.55-.13-3.55-2.43-1.28-2.27-2.69,1.25-11.43,17.91,2.17,17.91,2.17.67.55.76,4.06.89,4.85q1.13,6.59,1.93,13.22c2.76,22.33,1.74,44.54.61,66.94-3.54,3.62-5.86,4.7-11.56,2.36-1.14-14.66-2.22-29.32-3.16-44Z" fill="#34323d"></path><path d="M203.7,113.15c-.16-.72-2-1.21-2.58-1.51-1.29-.7-.54-1.92-1.8-2.68a43.37,43.37,0,0,0-5.72-2.79h-.05c-3.16,0-8.46-.18-8.78,4-.49,6.5.08,13,.58,19.46.2,2.6.43,5.18.66,7.72.08.93.2,8.43.76,8.66,6.27,2.6,14.29,1.68,20.43-.75A208.6,208.6,0,0,0,203.7,113.15Z" fill="#68e1fd"></path><path d="M203.7,113.15c-.16-.72-2-1.21-2.58-1.51-1.29-.7-.54-1.92-1.8-2.68a43.37,43.37,0,0,0-5.72-2.79h-.05c-3.16,0-8.46-.18-8.78,4-.49,6.5.08,13,.58,19.46.2,2.6.43,5.18.66,7.72.08.93.2,8.43.76,8.66,6.27,2.6,14.29,1.68,20.43-.75A208.6,208.6,0,0,0,203.7,113.15Z" fill="#3f3d56" opacity="0.33"></path><path d="M198.07,119.71a10.6,10.6,0,0,0,7.79,9.31c0,.43.13,3.07.18,3.5-5-1.2-8.7-7.49-9.22-12.81C196.73,118.91,198,118.91,198.07,119.71Z" fill="#34323d"></path><path d="M195,93c.41.11,3.92,8.17,2.54,13.06s-9.69-.14-11.78-3.87S187.14,91,195,93Z" fill="#fcbf81"></path><path d="M194.9,94.15a3.87,3.87,0,0,1-2.32,3.52c-2.33.86-4.26,1.44-4.14,2.52s4.21-.15,4.22,2.31a18.37,18.37,0,0,1-.67,4.91c-.26,1.21-7.24-2.49-9.54-8.81s3.46-8,3.74-8,.8-1.76,3.63-2.37,3.62.48,3.62.48a3.43,3.43,0,0,1,4.13.45c2.61,2.07,1.94,5.85-1,7.38Z" fill="#34323d"></path><path d="M198.06,108.26s14.38,8.24,19.56,8.25c3.74,0,11.14-1.21,15-1.89,3.56,3,3.8,8.3,1.59,12.35-6.28,1-24.88,3.7-30.71.81-7.06-3.5-14.83-8.19-14.83-8.19S181.61,112.69,198.06,108.26Z" fill="#68e1fd"></path><path d="M198.06,108.26s14.38,8.24,19.56,8.25c3.74,0,11.14-1.21,15-1.89,3.56,3,3.8,8.3,1.59,12.35-6.28,1-24.88,3.7-30.71.81-7.06-3.5-14.83-8.19-14.83-8.19S181.61,112.69,198.06,108.26Z" fill="#3f3d56" opacity="0.33"></path><path d="M238.9,115.88s2.15-1.77,2.71-1.41a8.61,8.61,0,0,1,1.69,5.15c-.18,1.78-1.09,3.29-5.51,3.24" fill="#fcbf81"></path><path d="M246.92,74.76l-.22-.76-2.42-1.32V68.58c0-.08,2.34,1.37,2.34,1.37l.11-.23a5.52,5.52,0,0,1,.71-1.78l-1.7-3.14,2.16-1.64,1.61,3.24h0a3.68,3.68,0,0,1,1.78,0V63.33L254.4,65v3.25a13.67,13.67,0,0,1,1.65,1.9L257.92,69l2.1,4-1.67,1.33.14.67a18.35,18.35,0,0,1,.52,2.16l2.48,1.36v4.1l-2.36-1.41a5.31,5.31,0,0,1-.76,2.1l1.77,3L257.9,88l-1.57-3.09h-2V88l-2.95-1.8v-3a12.18,12.18,0,0,1-1.78-2.2l-1.77,1.21-2.14-4.09,1.78-1.31-.18-.61C247.17,75.7,247,75.23,246.92,74.76Z" fill="#3f3d56" opacity="0.33"></path><ellipse cx="252.6" cy="75.59" rx="2.46" ry="4.23" transform="translate(-10.14 97.62) rotate(-21.45)" fill="#68e1fd"></ellipse></svg>